<svg xmlns="http://www.w3.org/2000/svg" xmlns:xlink="http://www.w3.org/1999/xlink" enable-background="new 0 0 32 32" version="1.1" xml:space="preserve" width="32" height="32"><rect id="backgroundrect" width="100%" height="100%" x="0" y="0" fill="none" stroke="none"/><g class="currentLayer"><title>Layer 1</title><g id="Layer_4_copy_4" class="selected" fill="#ffffff" fill-opacity="1"><g id="svg_1" fill="#ffffff" fill-opacity="1"><path d="M16,0C7.163,0,0,7.163,0,16s7.163,16,16,16s16-7.163,16-16S24.837,0,16,0z M16,31.25    C7.591,31.25,0.75,24.409,0.75,16S7.591,0.75,16,0.75S31.25,7.591,31.25,16S24.409,31.25,16,31.25z" fill="#ffffff" id="svg_2" fill-opacity="1"/><path d="M16,2.43C8.505,2.43,2.43,8.505,2.43,16S8.505,29.57,16,29.57S29.57,23.494,29.57,16S23.495,2.43,16,2.43z     M16,28.82C8.931,28.82,3.18,23.069,3.18,16S8.931,3.18,16,3.18S28.82,8.931,28.82,16S23.069,28.82,16,28.82z" fill="#ffffff" id="svg_3" fill-opacity="1"/><path d="M16.494,16.977c-0.404-0.285-1.176-0.98-1.176-1.388c0-0.478,0.136-0.714,0.857-1.278    c0.738-0.576,1.261-1.264,1.261-2.208c0-1.122-0.483-2.492-1.422-2.492h1.597l0.71-0.71c0,0-3.26,0-4.376,0    c-2.002,0-3.887,1.405-3.887,3.161c0,1.795,1.364,3.19,3.401,3.19c0.142,0,0.28-0.032,0.415-0.042    c-0.133,0.252-0.226,0.523-0.226,0.819c0,0.499,0.268,0.897,0.606,1.227c-0.254,0-0.503,0.004-0.774,0.004    c-2.48,0.001-4.388,1.579-4.388,3.216c0,1.613,2.093,2.623,4.572,2.623c2.827,0,4.389-1.606,4.389-3.219    C18.055,18.588,17.673,17.813,16.494,16.977z M14.108,14.739c-1.151-0.033-2.245-1.287-2.443-2.797    c-0.198-1.512,0.574-2.668,1.724-2.634c1.15,0.035,2.245,1.248,2.443,2.759C16.03,13.577,15.258,14.773,14.108,14.739z     M13.657,22.384c-1.714,0-2.952-1.085-2.952-2.388c0-1.277,1.535-2.341,3.251-2.322c0.399,0.004,0.772,0.069,1.11,0.177    c0.931,0.648,1.598,1.014,1.787,1.751c0.034,0.151,0.055,0.305,0.055,0.461C16.908,21.365,16.067,22.384,13.657,22.384z" fill="#ffffff" id="svg_4" fill-opacity="1"/><polygon fill="#ffffff" points="21.872,12.445 20.452,12.445 20.452,14.575 18.322,14.575 18.322,15.994 20.452,15.994     20.452,18.124 21.872,18.124 21.872,15.994 24.001,15.994 24.001,14.575 21.872,14.575   " id="svg_5" fill-opacity="1"/></g></g></g></svg>