<svg xmlns="http://www.w3.org/2000/svg" xmlns:xlink="http://www.w3.org/1999/xlink" enable-background="new 0 0 32 32" version="1.1" xml:space="preserve" width="32" height="32"><rect id="backgroundrect" width="100%" height="100%" x="0" y="0" fill="none" stroke="none"/><g class="currentLayer"><title>Layer 1</title><path d="M16,0C7.163,0,0,7.163,0,16s7.163,16,16,16s16-7.163,16-16S24.837,0,16,0z M16,31.25  C7.591,31.25,0.75,24.409,0.75,16S7.591,0.75,16,0.75S31.25,7.591,31.25,16S24.409,31.25,16,31.25z" fill="#ffffff" id="svg_1" class="selected" fill-opacity="1"/><path d="M16,2.43C8.505,2.43,2.43,8.505,2.43,16S8.505,29.57,16,29.57S29.57,23.495,29.57,16S23.495,2.43,16,2.43z   M16,28.82C8.931,28.82,3.18,23.069,3.18,16S8.931,3.18,16,3.18S28.82,8.931,28.82,16S23.069,28.82,16,28.82z" fill="#ffffff" id="svg_2" class="selected" fill-opacity="1"/><path d="M23.603,10.611C22.96,9.894,22.24,9.89,21.911,9.849c-2.363-0.183-5.907-0.183-5.907-0.183h-0.008  c0,0-3.544,0-5.907,0.183C9.759,9.89,9.04,9.894,8.396,10.611c-0.504,0.547-0.67,1.789-0.67,1.789s-0.169,1.457-0.169,2.914v1.366  c0,1.458,0.169,2.915,0.169,2.915s0.165,1.241,0.67,1.788c0.643,0.717,1.485,0.695,1.861,0.77C11.61,22.291,16,22.334,16,22.334  s3.548-0.007,5.911-0.187c0.33-0.042,1.05-0.046,1.692-0.763c0.506-0.546,0.67-1.787,0.67-1.787s0.169-1.457,0.169-2.915v-1.366  c0-1.458-0.169-2.915-0.169-2.915S24.109,11.158,23.603,10.611z M13.892,19.167v-6.334L19.169,16L13.892,19.167z" fill="#ffffff" id="svg_3" class="selected" fill-opacity="1"/></g></svg>