<svg id="svg" version="1.1" width="512" height="512" xmlns="http://www.w3.org/2000/svg" xmlns:xlink="http://www.w3.org/1999/xlink" style="display: block;"><g id="svgg"><path id="path0" d="M185.156 2.052 C 79.325 11.942,2.078 95.463,2.078 200.000 C 2.078 358.298,177.464 452.339,309.959 365.085 C 413.727 296.748,428.460 148.046,340.207 59.793 C 299.937 19.523,239.408 -3.018,185.156 2.052 M248.235 153.328 C 291.475 196.568,293.750 198.983,293.750 201.644 C 293.750 206.416,291.872 207.378,281.951 207.686 L 273.438 207.951 273.438 244.612 L 273.438 281.273 270.764 284.191 L 268.091 287.109 248.108 287.353 L 228.125 287.598 228.125 259.475 C 228.125 219.287,228.861 220.313,200.000 220.313 C 171.139 220.313,171.875 219.287,171.875 259.475 L 171.875 287.598 151.967 287.353 L 132.059 287.109 129.506 284.556 L 126.953 282.002 126.563 244.321 L 126.172 206.641 118.200 206.418 C 109.416 206.174,107.031 204.824,107.031 200.097 C 107.031 196.503,196.379 107.813,200.000 107.813 C 202.553 107.813,205.503 110.597,248.235 153.328 " stroke="none" fill="#ffffff" fill-rule="evenodd"></path></g></svg>